<?xml version="1.0" encoding="UTF-8"?>
<svg width="128px" height="128px" viewBox="0 0 128 128" version="1.1" xmlns="http://www.w3.org/2000/svg" xmlns:xlink="http://www.w3.org/1999/xlink">
    <!-- Generator: Sketch 58 (84663) - https://sketch.com -->
    <title>btn_home</title>
    <desc>Created with Sketch.</desc>
    <defs>
        <circle id="path-1" cx="64" cy="64" r="56"></circle>
        <filter x="-12.5%" y="-8.9%" width="125.0%" height="125.0%" filterUnits="objectBoundingBox" id="filter-2">
            <feOffset dx="0" dy="4" in="SourceAlpha" result="shadowOffsetOuter1"></feOffset>
            <feGaussianBlur stdDeviation="4" in="shadowOffsetOuter1" result="shadowBlurOuter1"></feGaussianBlur>
            <feColorMatrix values="0 0 0 0 0.188235294   0 0 0 0 0.521568627   0 0 0 0 1  0 0 0 0.187160326 0" type="matrix" in="shadowBlurOuter1"></feColorMatrix>
        </filter>
    </defs>
    <g id="公众号" stroke="none" stroke-width="1" fill="none" fill-rule="evenodd">
        <g id="1-1待处理任务" transform="translate(-582.000000, -1068.000000)">
            <g id="回首页" transform="translate(582.000000, 1068.000000)">
                <g>
                    <g id="椭圆形">
                        <use fill="black" fill-opacity="1" filter="url(#filter-2)" xlink:href="#path-1"></use>
                        <use fill="#D2E4FF" fill-rule="evenodd" xlink:href="#path-1"></use>
                    </g>
                    <path d="M62.0427421,23.7888392 L45.4937421,39.4853412 C44.8770304,40.0513679 44.8319839,41.0080165 45.3927846,41.6293667 C45.9535853,42.2507168 46.9108283,42.3047542 47.5381421,41.7504744 L47.8012921,41.5009017 L47.8012921,57.8835062 C47.8002834,58.6930504 48.1215242,59.4697828 48.6942383,60.0425733 C49.2669525,60.6153638 50.0441478,60.9372134 50.8545921,60.9372134 L57.6199495,60.9372134 C58.7907932,60.9372134 59.7399495,59.988057 59.7399495,58.8172134 L59.7399495,51.7552006 L59.7399495,51.7552006 C59.7391927,51.1850002 59.9654904,50.6379087 60.3689531,50.2345378 C60.7724158,49.8311669 61.3199151,49.6046374 61.8907495,49.6048899 L66.0717144,49.6048899 C66.6425488,49.6046374 67.1900481,49.8311669 67.5935108,50.2345378 C67.9969734,50.6379087 68.2232711,51.1850002 68.2225144,51.7552006 L68.2225144,58.8172134 C68.2225144,59.988057 69.1716707,60.9372134 70.3425144,60.9372134 L77.3187644,60.9372134 L77.3187644,60.9372134 C78.1293733,60.9372134 78.9068127,60.615727 79.4797325,60.0429091 C80.0526522,59.4700912 80.3740232,58.6932149 80.3730144,57.8835062 L80.3730144,41.7011292 C81.0513144,42.3141481 82.0136644,42.2676498 82.5779644,41.6394478 C82.8493748,41.3392235 82.9902467,40.9435829 82.9695793,40.5395921 C82.9489119,40.1356013 82.7683988,39.7563656 82.4677644,39.4853412 L66.1353495,23.7897881 C64.9743878,22.7368955 63.2037038,22.7368955 62.0427421,23.7888392 Z" id="路径" fill="#3085FF" opacity="0.900000036"></path>
                    <path d="M59.968,79.664 L59.968,94.424 L58.264,94.424 L58.264,93.44 L45.736,93.44 L45.736,94.424 L44.032,94.424 L44.032,79.664 L50.536,79.664 C50.728,78.896 50.896,78.08 50.992,77.24 L41.368,77.24 L41.368,75.56 L47.488,75.56 C47.128,74.624 46.72,73.736 46.24,72.92 L47.92,72.296 C48.4,73.208 48.856,74.288 49.264,75.56 L54.592,75.56 C55.144,74.504 55.624,73.4 56.032,72.224 L57.736,72.824 C57.352,73.856 56.944,74.768 56.488,75.56 L62.632,75.56 L62.632,77.24 L52.816,77.24 C52.672,78.08 52.528,78.896 52.336,79.664 L59.968,79.664 Z M45.736,91.88 L58.264,91.88 L58.264,89.312 L45.736,89.312 L45.736,91.88 Z M45.736,87.776 L58.264,87.776 L58.264,85.28 L45.736,85.28 L45.736,87.776 Z M45.736,83.744 L58.264,83.744 L58.264,81.248 L45.736,81.248 L45.736,83.744 Z M83.416,77.648 L83.416,89 L81.688,89 L81.688,79.328 L70.216,79.328 L70.216,89.048 L68.488,89.048 L68.488,77.648 L74.56,77.648 C74.8,76.808 74.968,75.944 75.088,75.032 L65.44,75.032 L65.44,73.4 L86.56,73.4 L86.56,75.032 L76.912,75.032 C76.768,75.944 76.6,76.832 76.36,77.648 L83.416,77.648 Z M77.584,89.048 C80.68,90.104 83.512,91.352 86.056,92.84 L85,94.472 C82.264,92.768 79.48,91.424 76.624,90.464 L77.584,89.048 Z M75.112,80.768 L76.888,80.768 L76.888,84.584 C76.792,87.224 75.928,89.312 74.344,90.896 C72.808,92.36 70.288,93.488 66.784,94.304 L65.8,92.768 C69.28,92 71.704,90.992 73.072,89.72 C74.368,88.4 75.04,86.696 75.112,84.584 L75.112,80.768 Z" id="首页" fill="#3085FF"></path>
                </g>
            </g>
        </g>
    </g>
</svg>