<?xml version="1.0" encoding="UTF-8"?>
<svg width="330px" height="100px" viewBox="0 0 330 100" version="1.1" xmlns="http://www.w3.org/2000/svg" xmlns:xlink="http://www.w3.org/1999/xlink">
    <!-- Generator: Sketch 58 (84663) - https://sketch.com -->
    <title>btn_rwjl</title>
    <desc>Created with Sketch.</desc>
    <defs>
        <linearGradient x1="-1.11022302e-14%" y1="50%" x2="100%" y2="50%" id="linearGradient-1">
            <stop stop-color="#FF706E" offset="0%"></stop>
            <stop stop-color="#FF9C5A" offset="100%"></stop>
        </linearGradient>
        <rect id="path-2" x="0" y="0" width="330" height="100" rx="50"></rect>
        <text id="text-4" font-family="PingFangSC-Medium, PingFang SC" font-size="32" font-weight="400" fill="#FFFFFF">
            <tspan x="141" y="62">任务奖励</tspan>
        </text>
        <filter x="-1.6%" y="-2.2%" width="103.1%" height="108.9%" filterUnits="objectBoundingBox" id="filter-5">
            <feOffset dx="0" dy="1" in="SourceAlpha" result="shadowOffsetOuter1"></feOffset>
            <feGaussianBlur stdDeviation="0.5" in="shadowOffsetOuter1" result="shadowBlurOuter1"></feGaussianBlur>
            <feColorMatrix values="0 0 0 0 0   0 0 0 0 0   0 0 0 0 0  0 0 0 0.259057971 0" type="matrix" in="shadowBlurOuter1"></feColorMatrix>
        </filter>
    </defs>
    <g id="公众号" stroke="none" stroke-width="1" fill="none" fill-rule="evenodd">
        <g id="0-2首页-空" transform="translate(-390.000000, -266.000000)">
            <g id="btn_rwjl" transform="translate(390.000000, 266.000000)">
                <mask id="mask-3" fill="white">
                    <use xlink:href="#path-2"></use>
                </mask>
                <use id="矩形-copy" fill="url(#linearGradient-1)" transform="translate(165.000000, 50.000000) scale(-1, 1) translate(-165.000000, -50.000000) " xlink:href="#path-2"></use>
                <g id="线性_活动" mask="url(#mask-3)">
                    <g transform="translate(61.000000, 19.000000)">
                        <rect id="矩形" fill="#000000" fill-rule="nonzero" opacity="0" x="0" y="0" width="60" height="60"></rect>
                        <path d="M32.472541,4.61814079 L52.2882397,15.8507288 C53.5412937,16.5610263 54.3156986,17.890169 54.3156986,19.3305394 L54.3156986,41.6694606 C54.3156986,43.109831 53.5412937,44.4389737 52.2882397,45.1492712 L32.472541,56.3818592 C31.2489683,57.0754451 29.7510317,57.0754451 28.527459,56.3818592 L8.71176035,45.1492712 C7.45870626,44.4389737 6.6843014,43.109831 6.6843014,41.6694606 L6.6843014,19.3305394 C6.6843014,17.890169 7.45870626,16.5610263 8.71176035,15.8507288 L28.527459,4.61814079 C29.7510317,3.92455493 31.2489683,3.92455493 32.472541,4.61814079 Z" id="多边形" fill="#FFFFFF" fill-rule="evenodd"></path>
                        <g id="编组-5" stroke-width="1" fill="none" fill-rule="evenodd" transform="translate(22.000000, 22.000000)" stroke-linecap="round" stroke-linejoin="round">
                            <path d="M8.80000019,20.1435711 L8.80000019,6.80000019" id="路径-8" stroke="#FF8E60" stroke-width="4"></path>
                            <path d="M1,0 L8.80000019,6.60000014" id="路径-2" stroke="#FF8E60" stroke-width="4"></path>
                            <path d="M9.20000076,4.4408921e-16 L17.4000006,6.60000014" id="路径-2" stroke="#FF8E60" stroke-width="4" transform="translate(13.100000, 3.500000) scale(-1, 1) translate(-13.100000, -3.500000) "></path>
                            <path d="M0,7.90000021 L17.6000004,7.90000021" id="路径-3" stroke="#FF8E60" stroke-width="4"></path>
                            <path d="M-1.77635684e-15,14.7000004 L17.6000004,14.7000004" id="路径-3" stroke="#FF8E60" stroke-width="4"></path>
                        </g>
                    </g>
                </g>
                <g id="任务奖励" mask="url(#mask-3)" fill="#FFFFFF" fill-opacity="1">
                    <use filter="url(#filter-5)" xlink:href="#text-4"></use>
                    <use xlink:href="#text-4"></use>
                </g>
            </g>
        </g>
    </g>
</svg>