<?xml version="1.0" encoding="UTF-8"?>
<svg width="36px" height="36px" viewBox="0 0 36 36" version="1.1" xmlns="http://www.w3.org/2000/svg" xmlns:xlink="http://www.w3.org/1999/xlink">
    <!-- Generator: Sketch 58 (84663) - https://sketch.com -->
    <title>icon_ywc</title>
    <desc>Created with Sketch.</desc>
    <g id="公众号" stroke="none" stroke-width="1" fill="none" fill-rule="evenodd">
        <g id="0-2首页-空" transform="translate(-30.000000, -900.000000)" fill="#4CC85E" fill-rule="nonzero">
            <g id="编组备份" transform="translate(0.000000, 862.000000)">
                <g id="icon_ywc" transform="translate(30.000000, 38.000000)">
                    <path d="M18.0011205,0 C10.7208285,0 4.15720804,4.38492835 1.37092056,11.1109416 C-1.41536692,17.8369548 0.124402504,25.5791032 5.27222376,30.7271697 C10.420045,35.8752362 18.1621201,37.4153745 24.8882661,34.6294074 C31.6144121,31.8434404 36,25.2800289 36,17.9997369 C35.9881878,8.06398832 27.9368686,0.0122855949 18.0011205,0 Z M28.0729124,14.5524314 L16.3683669,26.5493975 C16.0872882,26.8340024 15.7041671,26.9945367 15.3041614,26.9953286 L15.2964435,26.9953286 C14.8986751,26.9968434 14.5167814,26.8393933 14.2356682,26.5579729 L7.94133423,20.263639 C7.55917014,19.8854237 7.40884829,19.3314946 7.54739024,18.8119734 C7.68593218,18.2924522 8.09211394,17.8869271 8.61185866,17.749226 C9.13160338,17.6115249 9.68528857,17.7627429 10.0628849,18.1455185 L15.284438,23.367929 L25.9282081,12.4514616 C26.2992105,12.0489339 26.8598745,11.8802062 27.3914124,12.011121 C27.9229504,12.1420359 28.3411238,12.5518458 28.482749,13.0806308 C28.6243741,13.6094158 28.4670062,14.1733737 28.0720548,14.5524314 L28.0729124,14.5524314 Z" id="形状"></path>
                </g>
            </g>
        </g>
    </g>
</svg>