<?xml version="1.0" encoding="UTF-8"?>
<svg width="330px" height="100px" viewBox="0 0 330 100" version="1.1" xmlns="http://www.w3.org/2000/svg" xmlns:xlink="http://www.w3.org/1999/xlink">
    <!-- Generator: Sketch 58 (84663) - https://sketch.com -->
    <title>btn_lqrw</title>
    <desc>Created with Sketch.</desc>
    <defs>
        <linearGradient x1="100%" y1="50%" x2="0%" y2="50%" id="linearGradient-1">
            <stop stop-color="#3DB3FF" offset="0%"></stop>
            <stop stop-color="#3085FF" offset="100%"></stop>
        </linearGradient>
        <rect id="path-2" x="0" y="0" width="330" height="100" rx="50"></rect>
        <text id="text-4" font-family="PingFangSC-Medium, PingFang SC" font-size="32" font-weight="400" fill="#FFFFFF">
            <tspan x="141" y="61">领取任务</tspan>
        </text>
        <filter x="-1.6%" y="-2.2%" width="103.1%" height="108.9%" filterUnits="objectBoundingBox" id="filter-5">
            <feOffset dx="0" dy="1" in="SourceAlpha" result="shadowOffsetOuter1"></feOffset>
            <feGaussianBlur stdDeviation="0.5" in="shadowOffsetOuter1" result="shadowBlurOuter1"></feGaussianBlur>
            <feColorMatrix values="0 0 0 0 0   0 0 0 0 0   0 0 0 0 0  0 0 0 0.259057971 0" type="matrix" in="shadowBlurOuter1"></feColorMatrix>
        </filter>
    </defs>
    <g id="公众号" stroke="none" stroke-width="1" fill="none" fill-rule="evenodd">
        <g id="0-2首页-空" transform="translate(-30.000000, -266.000000)">
            <g id="btn_lqrw" transform="translate(30.000000, 266.000000)">
                <mask id="mask-3" fill="white">
                    <use xlink:href="#path-2"></use>
                </mask>
                <use id="矩形-copy" fill="url(#linearGradient-1)" xlink:href="#path-2"></use>
                <g id="分组-7" mask="url(#mask-3)">
                    <g transform="translate(61.000000, 20.000000)">
                        <rect id="矩形" x="0" y="0" width="60" height="60"></rect>
                        <g id="任务-(1)" stroke-width="1" fill-rule="evenodd" transform="translate(7.000000, 7.000000)">
                            <path d="M2.59328879,0 L43.0026912,0 C44.7246828,0 45.5856785,0.860995782 45.5856785,2.58298735 L45.5856785,3.67358205 C45.5856785,5.39557361 44.7246828,6.25656939 43.0026912,6.25656939 L2.59328879,6.25656939 C0.871297228,6.25656939 0.0103014453,5.39557361 0.0103014453,3.67358205 L0.0103014453,2.58298735 C0.0103014453,0.860995782 0.871297228,0 2.59328879,0 Z" id="路径" fill="#FFFFFF" fill-rule="nonzero"></path>
                            <path d="M4.487223,8.24642633 L4.487223,45.0396464 C4.47810241,45.6128171 4.72621412,46.1599939 5.16354204,46.5306108 C5.60086996,46.9012277 6.18133153,47.0562316 6.74520182,46.9529704 L22.3579255,43.8151191 L38.8699114,46.9721036 C39.4308545,47.0689348 40.0057853,46.9109689 40.4385057,46.5411224 C40.8712261,46.1712759 41.1167967,45.6279585 41.1087041,45.0587796 L41.1087041,8.24642633 L4.487223,8.24642633 Z M32.8620741,23.8782832 L27.6960994,27.7049312 C27.3477542,27.9573493 27.2010911,28.4050578 27.3325678,28.8146591 L29.2458918,34.8990293 C29.3021192,35.0977133 29.2297625,35.3104765 29.0640645,35.4336878 C28.8983666,35.556899 28.6737803,35.5649397 28.4996954,35.4538933 L23.3145875,31.6272453 C22.9723982,31.3783393 22.5087824,31.3783393 22.1665931,31.6272453 L16.9814851,35.4538933 C16.807324,35.5798995 16.5719271,35.579784 16.3978897,35.4536069 C16.2238523,35.3274298 16.1505487,35.1037375 16.2161555,34.8990293 L18.1294795,28.8146591 C18.2609563,28.4050578 18.1142932,27.9573493 17.765948,27.7049312 L12.5808399,23.8782832 C12.327232,23.7567627 12.220154,23.4526611 12.3416745,23.1990532 C12.4631949,22.9454453 12.7672966,22.8383673 13.0209045,22.9598877 L19.4114066,22.9598877 C19.8364087,22.9646692 20.2156198,22.6938041 20.3489353,22.2902243 L22.2622593,16.1867208 C22.3217849,15.9826329 22.5088655,15.8423225 22.7214571,15.8423225 C22.9340486,15.8423225 23.1211292,15.9826329 23.1806548,16.1867208 L25.0939788,22.2902243 C25.2272943,22.6938041 25.6065054,22.9646692 26.0315075,22.9598877 L32.536809,22.9598877 C32.7705126,22.9278208 32.9946045,23.0642976 33.0733568,23.2866571 C33.1521092,23.5090166 33.0638659,23.7561122 32.8620741,23.8782832 L32.8620741,23.8782832 Z" id="形状" fill="#FFFFFF" fill-rule="nonzero"></path>
                        </g>
                    </g>
                </g>
                <g id="领取任务" mask="url(#mask-3)" fill="#FFFFFF" fill-opacity="1">
                    <use filter="url(#filter-5)" xlink:href="#text-4"></use>
                    <use xlink:href="#text-4"></use>
                </g>
            </g>
        </g>
    </g>
</svg>