<?xml version="1.0" encoding="UTF-8"?>
<svg width="35px" height="35px" viewBox="0 0 35 35" version="1.1" xmlns="http://www.w3.org/2000/svg" xmlns:xlink="http://www.w3.org/1999/xlink">
    <!-- Generator: Sketch 58 (84663) - https://sketch.com -->
    <title>logo</title>
    <desc>Created with Sketch.</desc>
    <defs>
        <linearGradient x1="50%" y1="0%" x2="50%" y2="100%" id="linearGradient-1">
            <stop stop-color="#00DBD5" offset="0%"></stop>
            <stop stop-color="#00B7B3" offset="100%"></stop>
        </linearGradient>
        <linearGradient x1="81.5753446%" y1="92.6220798%" x2="6.0546875%" y2="0%" id="linearGradient-2">
            <stop stop-color="#3085FF" offset="0%"></stop>
            <stop stop-color="#5FBFFF" offset="100%"></stop>
        </linearGradient>
        <path d="M1.04892484,2.10194704 L14.6849478,2.10194704 C15.3143027,2.10194704 15.7338726,2.52151698 15.7338726,3.15087188 L15.7338726,17.8358196 C15.7338726,18.4651745 15.3143027,18.8847445 14.6849478,18.8847445 L1.04892484,18.8847445 C0.419569936,18.8847445 -5.68434189e-14,18.4651745 -5.68434189e-14,17.8358196 L-5.68434189e-14,3.15087188 C-5.68434189e-14,2.52151698 0.419569936,2.10194704 1.04892484,2.10194704 Z" id="path-3"></path>
        <linearGradient x1="50%" y1="0%" x2="50%" y2="100%" id="linearGradient-4">
            <stop stop-color="#00DBD5" offset="0%"></stop>
            <stop stop-color="#00B7B3" offset="100%"></stop>
        </linearGradient>
        <path d="M16.0170341,10.0813328 L16.0167889,12.9523328 L17.5176997,12.9529706 C18.2261558,12.9529706 18.8083636,13.4935045 18.8744072,14.1846565 L18.8806464,14.3159174 L18.8806464,16.0672821 L16.0164263,16.0669706 L16.0170341,17.5759733 C16.0170341,18.2844294 15.4765002,18.8666372 14.7853482,18.9326808 L14.6540873,18.93892 L12.9114263,18.93892 L12.9107889,16.0583328 L11.6107356,16.0584894 C10.9022795,16.0584894 10.3200717,15.5179555 10.2540281,14.8268035 L10.2477889,14.6955426 L10.2477889,12.9528816 L12.9107889,12.9523328 L12.9114263,11.4442795 C12.9114263,10.7358233 13.4519602,10.1536156 14.1431122,10.087572 L14.274373,10.0813328 L16.0170341,10.0813328 Z" id="path-5"></path>
    </defs>
    <g id="pc后台" stroke="none" stroke-width="1" fill="none" fill-rule="evenodd">
        <g id="0登录" transform="translate(-30.000000, -13.000000)">
            <g id="logo" transform="translate(30.000000, 13.000000)">
                <g transform="translate(0.423500, 0.423500)" fill="#FFFFFF" id="矩形">
                    <rect x="0.456500881" y="0.423500011" width="34" height="34" rx="17"></rect>
                </g>
                <g id="编组" transform="translate(10.012080, 7.792400)">
                    <g id="任务-(3)">
                        <path d="M1.04892484,2.10194704 L14.6849478,2.10194704 C15.3143027,2.10194704 15.7338726,2.52151698 15.7338726,3.15087188 L15.7338726,17.8358196 C15.7338726,18.4651745 15.3143027,18.8847445 14.6849478,18.8847445 L1.04892484,18.8847445 C0.419569936,18.8847445 -5.68434189e-14,18.4651745 -5.68434189e-14,17.8358196 L-5.68434189e-14,3.15087188 C-5.68434189e-14,2.52151698 0.419569936,2.10194704 1.04892484,2.10194704 Z" id="路径" fill="#FFFFFF" fill-rule="nonzero"></path>
                        <g id="路径">
                            <use fill="url(#linearGradient-1)" xlink:href="#path-3"></use>
                            <use fill="url(#linearGradient-2)" xlink:href="#path-3"></use>
                        </g>
                        <path d="M2.09784968,2.10194704 L13.6360229,2.10194704 L13.6360229,2.20683953 C13.6360229,3.25576437 12.796883,4.19979672 11.6430657,4.19979672 L4.09080688,4.19979672 C3.04188204,4.19979672 2.09784968,3.36065685 2.09784968,2.20683953 L2.09784968,2.10194704 Z" id="路径" fill="#FFFFFF" fill-rule="nonzero"></path>
                        <path d="M4.19569936,3.15087188 C3.56634446,3.15087188 3.14677452,2.73130195 3.14677452,2.10194704 C3.14677452,1.47259214 3.56634446,1.0530222 4.19569936,1.0530222 L6.39089008,1.05232899 C6.61723384,0.454193968 7.20993531,0.00409736266 7.8669363,0.00409736266 C8.52393728,0.00409736266 9.11663875,0.454193968 9.34298252,1.05232899 L11.5381732,1.0530222 C12.1675281,1.0530222 12.5870981,1.47259214 12.5870981,2.10194704 C12.5870981,2.73130195 12.1675281,3.15087188 11.5381732,3.15087188 L9.44032356,3.15087188 L6.29354904,3.15087188 L4.19569936,3.15087188 Z" id="形状结合" fill="#4AA4FF" fill-rule="nonzero"></path>
                        <path d="M3.78778404,7.34247359 C4.41713894,7.34247359 4.83670879,7.76204352 4.83670879,8.39139843 C4.83670879,9.02075333 4.41713894,9.44032318 3.78778404,9.44032318 C3.15842913,9.44032318 2.7388592,9.02075333 2.7388592,8.39139843 C2.7388592,7.76204352 3.15842913,7.34247359 3.78778404,7.34247359 Z M3.78778404,11.5381729 C4.41713894,11.5381729 4.83670879,11.9577429 4.83670879,12.5870978 C4.83670879,13.2164527 4.41713894,13.6360225 3.78778404,13.6360225 C3.15842913,13.6360225 2.7388592,13.2164527 2.7388592,12.5870978 C2.7388592,11.9577429 3.15842913,11.5381729 3.78778404,11.5381729 Z M3.78778404,7.34247359 L11.9693978,7.34247359 C12.5987527,7.34247359 13.0183226,7.76204352 13.0183226,8.39139843 C13.0183226,9.02075333 12.5987527,9.44032318 11.9693978,9.44032318 L3.78778404,9.44032318 C3.15842913,9.44032318 2.7388592,9.02075333 2.7388592,8.39139843 C2.7388592,7.76204352 3.15842913,7.34247359 3.78778404,7.34247359 Z M3.78778404,11.5381729 L11.9693978,11.5381729 C12.5987527,11.5381729 13.0183226,11.9577429 13.0183226,12.5870978 C13.0183226,13.2164527 12.5987527,13.6360225 11.9693978,13.6360225 L3.78778404,13.6360225 C3.15842913,13.6360225 2.7388592,13.2164527 2.7388592,12.5870978 C2.7388592,11.9577429 3.15842913,11.5381729 3.78778404,11.5381729 Z" id="形状" fill="#FFFFFF" fill-rule="nonzero"></path>
                    </g>
                    <g id="形状结合">
                        <use fill="url(#linearGradient-4)" xlink:href="#path-5"></use>
                        <path stroke="#FFFFFF" stroke-width="0.815830399" d="M16.4247389,12.5445909 L17.5176997,12.5450554 C18.4323126,12.5450554 19.1940364,13.241291 19.2818623,14.165289 L19.2885616,14.3159174 L19.2885616,16.4752417 L16.4245059,16.4749302 L16.4249493,17.5759733 C16.4249493,18.4905862 15.7287137,19.25231 14.8047157,19.3401359 L14.6540873,19.3468352 L12.5036014,19.3468352 L12.502964,16.4662971 L11.6107356,16.4664046 C10.6961227,16.4664046 9.93439893,15.770169 9.84657296,14.846171 L9.83987373,14.6955426 L9.83987373,12.5450505 L12.5030461,12.5445016 L12.5035111,11.4442795 C12.5035111,10.5296665 13.1997467,9.76794277 14.1237447,9.6801168 L14.274373,9.67341758 L16.4249841,9.67341758 L16.4247389,12.5445909 Z" fill="#4CC85E"></path>
                    </g>
                </g>
            </g>
        </g>
    </g>
</svg>